<svg xmlns="http://www.w3.org/2000/svg" width="197" height="195" viewBox="0 0 197 195"><defs><style>.a{opacity:0.25;}.b{fill:#ffc30e;}</style></defs><g class="a" transform="translate(91 115)"><g transform="translate(43 0)"><circle cx="2" cy="2" r="2" transform="translate(29)"/><circle cx="2" cy="2" r="2" transform="translate(44)"/><circle cx="2" cy="2" r="2" transform="translate(59)"/><circle cx="2" cy="2" r="2" transform="translate(29 60)"/><circle cx="2" cy="2" r="2" transform="translate(44 60)"/><circle cx="2" cy="2" r="2" transform="translate(59 60)"/><ellipse cx="2" cy="2.5" rx="2" ry="2.5" transform="translate(29 15)"/><ellipse cx="2" cy="2.5" rx="2" ry="2.5" transform="translate(44 15)"/><ellipse cx="2" cy="2.5" rx="2" ry="2.5" transform="translate(59 15)"/><ellipse cx="2" cy="2.5" rx="2" ry="2.5" transform="translate(29 75)"/><ellipse cx="2" cy="2.5" rx="2" ry="2.5" transform="translate(44 75)"/><ellipse cx="2" cy="2.5" rx="2" ry="2.5" transform="translate(59 75)"/><ellipse cx="2" cy="2.5" rx="2" ry="2.5" transform="translate(29 29)"/><ellipse cx="2" cy="2.5" rx="2" ry="2.5" transform="translate(44 29)"/><ellipse cx="2" cy="2.5" rx="2" ry="2.5" transform="translate(59 29)"/><circle cx="2" cy="2" r="2" transform="translate(29 45)"/><circle cx="2" cy="2" r="2" transform="translate(44 45)"/><circle cx="2" cy="2" r="2" transform="translate(59 45)"/><circle cx="2" cy="2" r="2" transform="translate(15)"/><circle cx="2" cy="2" r="2" transform="translate(15 60)"/><ellipse cx="2" cy="2.5" rx="2" ry="2.5" transform="translate(15 15)"/><ellipse cx="2" cy="2.5" rx="2" ry="2.5" transform="translate(15 75)"/><ellipse cx="2" cy="2.5" rx="2" ry="2.5" transform="translate(15 29)"/><circle cx="2" cy="2" r="2" transform="translate(15 45)"/><circle cx="2" cy="2" r="2" transform="translate(0)"/><circle cx="2" cy="2" r="2" transform="translate(0 60)"/><ellipse cx="2" cy="2.5" rx="2" ry="2.5" transform="translate(0 15)"/><ellipse cx="2" cy="2.5" rx="2" ry="2.5" transform="translate(0 75)"/><ellipse cx="2" cy="2.5" rx="2" ry="2.5" transform="translate(0 29)"/><circle cx="2" cy="2" r="2" transform="translate(0 45)"/></g><g transform="translate(0 0)"><circle cx="2" cy="2" r="2" transform="translate(29)"/><circle cx="2" cy="2" r="2" transform="translate(29 60)"/><ellipse cx="2" cy="2.5" rx="2" ry="2.5" transform="translate(29 15)"/><ellipse cx="2" cy="2.5" rx="2" ry="2.5" transform="translate(29 75)"/><ellipse cx="2" cy="2.5" rx="2" ry="2.5" transform="translate(29 29)"/><circle cx="2" cy="2" r="2" transform="translate(29 45)"/><ellipse cx="2.5" cy="2" rx="2.5" ry="2" transform="translate(14)"/><ellipse cx="2.5" cy="2" rx="2.5" ry="2" transform="translate(14 60)"/><circle cx="2.5" cy="2.5" r="2.5" transform="translate(14 15)"/><circle cx="2.5" cy="2.5" r="2.5" transform="translate(14 75)"/><circle cx="2.5" cy="2.5" r="2.5" transform="translate(14 29)"/><ellipse cx="2.5" cy="2" rx="2.5" ry="2" transform="translate(14 45)"/><circle cx="2" cy="2" r="2" transform="translate(0)"/><circle cx="2" cy="2" r="2" transform="translate(0 60)"/><ellipse cx="2" cy="2.5" rx="2" ry="2.5" transform="translate(0 15)"/><ellipse cx="2" cy="2.5" rx="2" ry="2.5" transform="translate(0 75)"/><ellipse cx="2" cy="2.5" rx="2" ry="2.5" transform="translate(0 29)"/><circle cx="2" cy="2" r="2" transform="translate(0 45)"/></g></g><path class="b" d="M0,0H85a75,75,0,0,1,75,75v97a0,0,0,0,1,0,0H75A75,75,0,0,1,0,97V0A0,0,0,0,1,0,0Z"/></svg>