<svg xmlns="http://www.w3.org/2000/svg" width="8.125" height="8.276" viewBox="0 0 8.125 8.276"><defs><style>.a{fill:#dca937;}</style></defs><g transform="translate(0.001 0.001)"><path class="a" d="M3.638,7.335a.563.563,0,0,0,.011.784l.008.008a.536.536,0,0,0,.752-.011c1.189-1.189,2.366-2.4,3.548-3.6l.013-.011a.565.565,0,0,0-.011-.786L7.94,3.7Q6.175,1.932,4.408.158a.535.535,0,0,0-.751-.01l-.01.01A.563.563,0,0,0,3.638.94L6.819,4.124,3.638,7.335ZM.151,7.2a.563.563,0,0,0,.012.783l.008.008A.535.535,0,0,0,.923,7.98c1.165-1.165,2.368-2.31,3.548-3.46l.014-.011a.565.565,0,0,0-.011-.786Q2.707,2.01.931.3L.923.294A.537.537,0,0,0,.172.284l-.01.01a.563.563,0,0,0-.009.782L3.331,4.123.151,7.2Z" transform="translate(0 0)"/></g></svg>