<svg xmlns="http://www.w3.org/2000/svg" width="197" height="195" viewBox="0 0 197 195"><defs><style>.a{opacity:0.25;}.b{fill:#ffefc0;}</style></defs><g transform="translate(-1637.695 -968)"><g class="a" transform="translate(1638 1083.087)"><g transform="translate(0 0)"><circle cx="2" cy="2" r="2" transform="translate(29.695 -0.087)"/><circle cx="2" cy="2" r="2" transform="translate(14.695 -0.087)"/><circle cx="2" cy="2" r="2" transform="translate(-0.305 -0.087)"/><circle cx="2" cy="2" r="2" transform="translate(29.695 59.913)"/><circle cx="2" cy="2" r="2" transform="translate(14.695 59.913)"/><circle cx="2" cy="2" r="2" transform="translate(-0.305 59.913)"/><ellipse cx="2" cy="2.5" rx="2" ry="2.5" transform="translate(29.695 14.913)"/><ellipse cx="2" cy="2.5" rx="2" ry="2.5" transform="translate(14.695 14.913)"/><ellipse cx="2" cy="2.5" rx="2" ry="2.5" transform="translate(-0.305 14.913)"/><ellipse cx="2" cy="2.5" rx="2" ry="2.5" transform="translate(29.695 74.913)"/><ellipse cx="2" cy="2.5" rx="2" ry="2.5" transform="translate(14.695 74.913)"/><ellipse cx="2" cy="2.5" rx="2" ry="2.5" transform="translate(-0.305 74.913)"/><ellipse cx="2" cy="2.5" rx="2" ry="2.5" transform="translate(29.695 28.913)"/><ellipse cx="2" cy="2.5" rx="2" ry="2.5" transform="translate(14.695 28.913)"/><ellipse cx="2" cy="2.5" rx="2" ry="2.5" transform="translate(-0.305 28.913)"/><circle cx="2" cy="2" r="2" transform="translate(29.695 44.913)"/><circle cx="2" cy="2" r="2" transform="translate(14.695 44.913)"/><circle cx="2" cy="2" r="2" transform="translate(-0.305 44.913)"/><circle cx="2" cy="2" r="2" transform="translate(43.695 -0.087)"/><circle cx="2" cy="2" r="2" transform="translate(43.695 59.913)"/><ellipse cx="2" cy="2.5" rx="2" ry="2.5" transform="translate(43.695 14.913)"/><ellipse cx="2" cy="2.5" rx="2" ry="2.5" transform="translate(43.695 74.913)"/><ellipse cx="2" cy="2.5" rx="2" ry="2.5" transform="translate(43.695 28.913)"/><circle cx="2" cy="2" r="2" transform="translate(43.695 44.913)"/><circle cx="2" cy="2" r="2" transform="translate(58.695 -0.087)"/><circle cx="2" cy="2" r="2" transform="translate(58.695 59.913)"/><ellipse cx="2" cy="2.5" rx="2" ry="2.5" transform="translate(58.695 14.913)"/><ellipse cx="2" cy="2.5" rx="2" ry="2.5" transform="translate(58.695 74.913)"/><ellipse cx="2" cy="2.5" rx="2" ry="2.5" transform="translate(58.695 28.913)"/><circle cx="2" cy="2" r="2" transform="translate(58.695 44.913)"/></g><g transform="translate(72.54 0)"><circle cx="2" cy="2" r="2" transform="translate(0.155 -0.087)"/><circle cx="2" cy="2" r="2" transform="translate(0.155 59.913)"/><ellipse cx="2" cy="2.5" rx="2" ry="2.5" transform="translate(0.155 14.913)"/><ellipse cx="2" cy="2.5" rx="2" ry="2.5" transform="translate(0.155 74.913)"/><ellipse cx="2" cy="2.5" rx="2" ry="2.5" transform="translate(0.155 28.913)"/><circle cx="2" cy="2" r="2" transform="translate(0.155 44.913)"/><ellipse cx="2.5" cy="2" rx="2.5" ry="2" transform="translate(14.155 -0.087)"/><ellipse cx="2.5" cy="2" rx="2.5" ry="2" transform="translate(14.155 59.913)"/><circle cx="2.5" cy="2.5" r="2.5" transform="translate(14.155 14.913)"/><circle cx="2.5" cy="2.5" r="2.5" transform="translate(14.155 74.913)"/><circle cx="2.5" cy="2.5" r="2.5" transform="translate(14.155 28.913)"/><ellipse cx="2.5" cy="2" rx="2.5" ry="2" transform="translate(14.155 44.913)"/><circle cx="2" cy="2" r="2" transform="translate(29.155 -0.087)"/><circle cx="2" cy="2" r="2" transform="translate(29.155 59.913)"/><ellipse cx="2" cy="2.5" rx="2" ry="2.5" transform="translate(29.155 14.913)"/><ellipse cx="2" cy="2.5" rx="2" ry="2.5" transform="translate(29.155 74.913)"/><ellipse cx="2" cy="2.5" rx="2" ry="2.5" transform="translate(29.155 28.913)"/><circle cx="2" cy="2" r="2" transform="translate(29.155 44.913)"/></g></g><path class="b" d="M75,0h85a0,0,0,0,1,0,0V97a75,75,0,0,1-75,75H0a0,0,0,0,1,0,0V75A75,75,0,0,1,75,0Z" transform="translate(1674.695 968)"/></g></svg>