<svg xmlns="http://www.w3.org/2000/svg" width="67.1" height="54.228" viewBox="0 0 67.1 54.228"><defs><style>.a{fill:#ffc107;}</style></defs><g transform="translate(-312 -6663.905)"><g transform="translate(312 6663.905)"><path class="a" d="M4173,3790h28.808c.011.251.029.461.029.671q0,17.458,0,34.916c-.007,8.889-5.5,16.22-13.659,18.172a18.581,18.581,0,0,1-3.662.431c-1.969.069-3.942.02-5.913.019-.119,0-.239-.021-.39-.034v-13.036c.22-.011.437-.031.653-.031,1.767,0,3.532,0,5.3,0,3.262-.013,5.349-2.24,5.352-5.7,0-1.548,0-3.1,0-4.736H4173Z" transform="translate(-4173 -3790)"/><path class="a" d="M4480.174,3827.22c-.218,1.193-.356,2.41-.665,3.576a17.518,17.518,0,0,1-16.815,13.414c-2.03.022-4.06,0-6.136,0v-13.1h.675c1.765,0,3.531.008,5.3,0,3.223-.018,5.314-2.253,5.318-5.672,0-1.566,0-3.134,0-4.746h-16.467V3790h28.791Z" transform="translate(-4413.074 -3790.001)"/></g></g></svg>