<svg xmlns="http://www.w3.org/2000/svg" width="168.827" height="25.197" viewBox="0 0 168.827 25.197"><defs><style>.a{fill:#ffc107;}.b{fill:#f1f1f1;}</style></defs><g transform="translate(-239 -7035.914)"><path class="a" d="M26.2,10a1.394,1.394,0,0,0-1.2-.96l-7.582-.688-3-7.018a1.4,1.4,0,0,0-2.568,0l-3,7.017L1.27,9.045a1.4,1.4,0,0,0-.793,2.443l5.731,5.026-1.69,7.445a1.394,1.394,0,0,0,2.077,1.508l6.541-3.909,6.538,3.909a1.4,1.4,0,0,0,2.078-1.508l-1.69-7.445,5.731-5.025A1.4,1.4,0,0,0,26.2,10Zm0,0" transform="translate(239 7035.443)"/><path class="a" d="M26.2,10a1.394,1.394,0,0,0-1.2-.96l-7.582-.688-3-7.018a1.4,1.4,0,0,0-2.568,0l-3,7.017L1.27,9.045a1.4,1.4,0,0,0-.793,2.443l5.731,5.026-1.69,7.445a1.394,1.394,0,0,0,2.077,1.508l6.541-3.909,6.538,3.909a1.4,1.4,0,0,0,2.078-1.508l-1.69-7.445,5.731-5.025A1.4,1.4,0,0,0,26.2,10Zm0,0" transform="translate(274.639 7035.443)"/><path class="a" d="M26.2,10a1.394,1.394,0,0,0-1.2-.96l-7.582-.688-3-7.018a1.4,1.4,0,0,0-2.568,0l-3,7.017L1.27,9.045a1.4,1.4,0,0,0-.793,2.443l5.731,5.026-1.69,7.445a1.394,1.394,0,0,0,2.077,1.508l6.541-3.909,6.538,3.909a1.4,1.4,0,0,0,2.078-1.508l-1.69-7.445,5.731-5.025A1.4,1.4,0,0,0,26.2,10Zm0,0" transform="translate(310.278 7035.443)"/><path class="a" d="M26.2,10a1.394,1.394,0,0,0-1.2-.96l-7.582-.688-3-7.018a1.4,1.4,0,0,0-2.568,0l-3,7.017L1.27,9.045a1.4,1.4,0,0,0-.793,2.443l5.731,5.026-1.69,7.445a1.394,1.394,0,0,0,2.077,1.508l6.541-3.909,6.538,3.909a1.4,1.4,0,0,0,2.078-1.508l-1.69-7.445,5.731-5.025A1.4,1.4,0,0,0,26.2,10Zm0,0" transform="translate(345.917 7035.443)"/><path class="a" d="M26.2,10a1.394,1.394,0,0,0-1.2-.96l-7.582-.688-3-7.018a1.4,1.4,0,0,0-2.568,0l-3,7.017L1.27,9.045a1.4,1.4,0,0,0-.793,2.443l5.731,5.026-1.69,7.445a1.394,1.394,0,0,0,2.077,1.508l6.541-3.909,6.538,3.909a1.4,1.4,0,0,0,2.078-1.508l-1.69-7.445,5.731-5.025A1.4,1.4,0,0,0,26.2,10Zm0,0" transform="translate(381.556 7035.443)"/><path class="b" d="M6.538,24.976,0,21.066V0A1.4,1.4,0,0,1,1.284.847l3,7.018,7.582.688A1.4,1.4,0,0,1,12.657,11L6.927,16.023l1.689,7.444a1.4,1.4,0,0,1-2.078,1.509Z" transform="translate(394.691 7035.914)"/></g></svg>