<svg xmlns="http://www.w3.org/2000/svg" xmlns:xlink="http://www.w3.org/1999/xlink" width="100.59" height="102.919" viewBox="0 0 100.59 102.919"><defs><style>.a,.j,.k,.l,.m,.o,.p{fill:none;}.b{fill:#fff1c8;}.c{clip-path:url(#a);}.d{fill:#965450;}.e{fill:#ffb899;}.f{fill:#efa084;}.g{fill:#6f96bd;}.h{fill:#85accc;}.i{fill:#352c38;}.j,.k,.l,.o{stroke:#352c38;}.j,.k,.l,.m,.o,.p{stroke-miterlimit:10;}.j{stroke-width:4px;}.k{stroke-width:3px;}.l{stroke-width:2px;}.m{stroke:#f77b59;stroke-width:2.033px;}.n{fill:#fff;}.o{stroke-width:3.53px;}.p{stroke:#161114;stroke-width:1.457px;}</style><clipPath id="a"><path class="a" d="M99.871,366.008q-21.136-.473-35.642-15a45.742,45.742,0,0,1-12.584-23.22,53.27,53.27,0,0,1,1.131-26.935,54.212,54.212,0,0,1,13.708-23.063q14.19-14.19,33.384-14.673t35,15.319q15.486,15.486,16.13,36.447t-14.513,36.127Q121,366.494,99.871,366.008Z" transform="translate(-50.432 -263.105)"/></clipPath></defs><g transform="translate(-13259.432 -19217.105)"><g transform="translate(13259.432 19217.105)"><g transform="translate(0 0)"><path class="b" d="M99.871,366.008q-21.136-.473-35.642-15a45.742,45.742,0,0,1-12.584-23.22,53.27,53.27,0,0,1,1.131-26.935,54.212,54.212,0,0,1,13.708-23.063q14.19-14.19,33.384-14.673t35,15.319q15.486,15.486,16.13,36.447t-14.513,36.127Q121,366.494,99.871,366.008Z" transform="translate(-50.432 -263.105)"/></g><g transform="translate(0 0)"><g class="c"><g transform="translate(13.226 32.678)"><g transform="translate(16.64)"><path class="d" d="M109.183,338.478c.574.263,1.149.519,1.738.723a29.867,29.867,0,0,0,7.1,1.778c4.046.353,8.087.782,12.135,1.123l.465-14.714-20.736,4.187A36.717,36.717,0,0,1,109.183,338.478Z" transform="translate(-109.183 -327.388)"/><path class="d" d="M164.383,342.855c3.155-.023,5.974-1.807,8.253-4.1a36.4,36.4,0,0,1-.479-8.806l-20.9-2.56.47,14.871C155.92,342.583,160.18,342.886,164.383,342.855Z" transform="translate(-129.869 -327.388)"/></g><g transform="translate(0 22.406)"><g transform="translate(3.487)"><path class="e" d="M127.77,390.588c-3.47-2.843-.248-19.124-.248-19.124H107.858s3.222,16.281-.248,19.124-26.259,2.5-24.165,31.134h66.869C152.9,393.013,131.24,393.431,127.77,390.588Z" transform="translate(-83.309 -371.464)"/><path class="f" d="M150.51,388.962c-1.717-5.012.754-17.5.754-17.5H131.6a77.907,77.907,0,0,1,1.358,12.271C137.911,387.474,144.13,388.955,150.51,388.962Z" transform="translate(-107.052 -371.464)"/></g><g transform="translate(0 21.07)"><path class="g" d="M130.363,412.938l0,.025c-.043-.007-.084-.018-.127-.025,0,0-2.639,10.375-13.382,12.021l-2.836,10.054-2.836-10.055c-10.687-1.65-13-12.02-13-12.02s-23.3.047-21.647,17.7a32.378,32.378,0,0,0,14.142,6.16c-.3,1.721-.7,3.526-1.213,5.416l24.593.186v0h.308v0l23.862-.184c-.5-1.836-.887-3.592-1.187-5.269a32.705,32.705,0,0,0,14.972-6.308C152.656,411.459,130.363,412.938,130.363,412.938Z" transform="translate(-76.45 -412.911)"/><circle class="h" cx="1.779" cy="1.779" r="1.779" transform="translate(41.639 13.798)"/></g></g></g><g transform="translate(18.06 6.879)"><g transform="translate(0 0)"><g transform="translate(10.851 14.774)"><path class="f" d="M107.65,352.215c.964,3.528,3.678,6.657,5.812,6.073s2.88-4.657,1.915-8.185-3.273-5.174-5.407-4.591S106.685,348.687,107.65,352.215Z" transform="translate(-107.305 -325.216)"/><path class="f" d="M185.6,352.215c-.964,3.528-3.678,6.657-5.812,6.073s-2.88-4.657-1.915-8.185,3.273-5.174,5.407-4.591S186.566,348.687,185.6,352.215Z" transform="translate(-141.797 -325.216)"/><path class="e" d="M115.918,326.372c0,12.917,7.983,26.1,17.831,26.1s17.832-13.184,17.832-26.1S143.6,305.7,133.749,305.7,115.918,313.455,115.918,326.372Z" transform="translate(-111.54 -305.698)"/></g><path class="i" d="M146.18,333.441l-.048,12.749c-.188,1.627-.417,3.192-.7,4.558-1.016,4.907-2.974,9.834-5.043,9.516-3.711-.571-1.19-4.53-3.045-5.9-3.093-2.283-14.9-3.454-14.273,2.569.652,6.287-8.079,1.08-7.38-16.542l.142-2.712c0-.052.123-2.346.123-2.346a2.333,2.333,0,0,0,1.391-1.444c-2.262.108-4.522.259-6.778.473.223,1.029-.358,5.569.817,5.11,1.649-.645,1.577.43,1.649,1.863.439,10.328-.881,28.1,17.085,28.661,21.689.678,18.76-20.457,18.535-26.152,0-4.086,1.705-4.24,2.723-4.013,0,0,.262-1.945.77-6.774C149.83,333.228,148.5,333.365,146.18,333.441Zm-12.833,28.535c-1.237-.19-1.427-2.474-1.427-2.474l-2.474.1s.191,3.045-1.9,2.378c-3.154-1-2.283-6.185-2.283-6.185a6.283,6.283,0,0,0,4.948-1.237,9,9,0,0,0,6.09,1.427C137.058,361.025,134.585,362.167,133.348,361.976Z" transform="translate(-98.058 -304.375)"/><g transform="translate(0 0)"><path class="i" d="M104.394,85.745a5.812,5.812,0,0,1,8.472,1.186c3.9,4.914,1.356,17.962-5.083,23.215Z" transform="translate(-59.659 -66.723)"/><path class="i" d="M186.822,115.418l-.789,9.982c-1.59-2.279-2.761-6.027-3.4-9.941C184.031,115.435,185.427,115.409,186.822,115.418Z" transform="translate(-171.542 -81.977)"/><g transform="translate(0 0)"><path class="j" d="M168.45,78.8s3.558-12.37-6.947-17.114-10.845,7.794-16.945,6.947S134.391,64.9,131,71s-7.117,1.186-7.117,1.186" transform="translate(-123.885 -55.029)"/><path class="k" d="M104.329,49.636s-6.172,3.718,1.406,7.232,3.941,7.6,2.82,13.777c0,0,1.666-6.054,7.088-3.681s3.389,11.184,3.389,11.184" transform="translate(-63.114 -49.636)"/><path class="j" d="M160.248,80.4s2.9-12.541-7.847-16.721-10.416,8.359-16.552,7.837-10.351-3.183-13.411,3.089" transform="translate(-114.722 -56.12)"/></g></g><g transform="translate(4.744 6.926)"><path class="i" d="M162.393,81.067a11.771,11.771,0,0,0-4.151-2.881c-2.689-.927-5.831-.245-6.016,4.406-.329,8.312-3.05,7.625-6.439,6.1s-6.609-2.711-7.117,3.05-1.695,7.456-5.423,6.948-8.473-1.017-7.964,4.405c0,0-4.1-8.04,6.948-7.794,7.625.169-2.2-11.184,11.353-10.167,0,0-8.019-.937-8.218,5.846-.17,5.761-10.252,5-11.608,2.965,0,0,7.287,1.525,8.642-3.728s.508-6.948,7.8-8.981l-5.253,4.575L132.4,92.59s-5.761,4.744-8.642-2.712c0,0,2.2,3.643,4.829.593,1.684-1.956-3.219-7.286,3.643-12.285,6.372-4.641,7.964,3.05,10.506-3.728C146.474,64.495,164.257,67.851,162.393,81.067Z" transform="translate(-122.064 -65.922)"/><path class="i" d="M164.213,76.712s1.356-8.133-7.625-12.539-10.167,8.642-16.436,7.456-11.024,1.355-11.523,6.778c-.678,7.371-4.744,3.389-4.744,3.389s2.711,5.422,5.253,2.542C131.905,81.2,130.831,74,141.167,76.2,153.8,78.9,156.926,61.97,164.213,76.712Z" transform="translate(-123.884 -63.26)"/><path class="l" d="M160.943,85.95s-10.412-7.337-9.555,3.305c.667,8.292-2.3,7.883-5.823,6.691s-6.838-2.064-6.791,3.72-.97,7.584-4.73,7.436-8.531-.2-7.5,5.15" transform="translate(-121.819 -73.204)"/></g></g><g transform="translate(18.75 32.145)"><path class="m" d="M152.4,345.722c.323,1.842,1.017,7.455,2.066,10.526l-3.406,2.253" transform="translate(-136.715 -342.747)"/><path class="n" d="M138.888,377.837s6.06,6.232,11.658.2" transform="translate(-130.732 -358.536)"/><path class="o" d="M153.693,342.845s5.2-6.912,12.365.335" transform="translate(-138.011 -339.87)"/><path class="o" d="M122.844,344.1s4.125-7.961,12.136-1.112" transform="translate(-122.844 -340.036)"/><path class="p" d="M131.843,352.532s-.32-3.643,1.919-3.813,2.318,3.728,2.318,3.728" transform="translate(-127.26 -344.218)"/><path class="p" d="M162.51,352.532s-.32-3.643,1.919-3.813,2.318,3.728,2.318,3.728" transform="translate(-142.338 -344.218)"/></g></g></g></g></g></g></svg>