<svg xmlns="http://www.w3.org/2000/svg" xmlns:xlink="http://www.w3.org/1999/xlink" width="100.588" height="102.917" viewBox="0 0 100.588 102.917"><defs><style>.a,.h,.i,.j,.k,.l{fill:none;}.b{fill:#fff1c8;}.c{clip-path:url(#a);}.d{fill:#ffac9d;}.e{fill:#f9968a;}.f{fill:#fc6a5a;}.g{fill:#352c38;}.h,.i,.j{stroke:#352c38;}.h,.i,.j,.k,.l{stroke-miterlimit:10;}.h{stroke-width:4px;}.i{stroke-width:3px;}.j{stroke-width:2px;}.k{stroke:#ea7b6c;stroke-width:2.033px;}.l{stroke:#161114;stroke-width:3.53px;}.m{fill:#161114;}</style><clipPath id="a"><path class="a" d="M99.87,140.388q-21.136-.473-35.641-15a45.737,45.737,0,0,1-12.583-23.22,53.267,53.267,0,0,1,1.131-26.934A54.21,54.21,0,0,1,66.484,52.174Q80.674,37.983,99.868,37.5t34.995,15.319q15.486,15.486,16.13,36.447T136.48,125.392Q121,140.874,99.87,140.388Z" transform="translate(-50.432 -37.487)"/></clipPath></defs><g transform="translate(-50.432 -37.486)"><g transform="translate(50.432 37.487)"><path class="b" d="M99.87,140.388q-21.136-.473-35.641-15a45.737,45.737,0,0,1-12.583-23.22,53.267,53.267,0,0,1,1.131-26.934A54.21,54.21,0,0,1,66.484,52.174Q80.674,37.983,99.868,37.5t34.995,15.319q15.486,15.486,16.13,36.447T136.48,125.392Q121,140.874,99.87,140.388Z" transform="translate(-50.432 -37.487)"/></g><g transform="translate(50.432 37.487)"><g class="c"><g transform="translate(16.713 6.176)"><g transform="translate(0 48.907)"><path class="d" d="M127.769,164.97c-3.47-2.843-.248-19.124-.248-19.124H107.858s3.222,16.281-.248,19.124-26.258,2.5-24.165,31.133h66.868C152.9,167.394,131.239,167.812,127.769,164.97Z" transform="translate(-83.309 -145.846)"/><path class="e" d="M150.51,163.343c-1.717-5.012.754-17.5.754-17.5H131.6a77.907,77.907,0,0,1,1.358,12.271C137.91,161.856,144.13,163.337,150.51,163.343Z" transform="translate(-107.053 -145.846)"/><path class="f" d="M150.4,190.166a27.58,27.58,0,0,0-7.573-2.821s-2.9,8.971-16.029,9.042c-13.13-.071-16.028-9.042-16.028-9.042a28.558,28.558,0,0,0-8.276,2.917c1.126,3.787,3.18,13.019-.442,26.355l24.593.186v0h.308v0l23.861-.184C147.158,203.17,149.277,193.882,150.4,190.166Z" transform="translate(-92.523 -166.25)"/></g><g transform="translate(9.48)"><g transform="translate(2.718 35.656)"><path class="e" d="M107.65,126.6c.964,3.528,3.678,6.657,5.812,6.073s2.88-4.657,1.915-8.185-3.273-5.174-5.407-4.591S106.685,123.069,107.65,126.6Z" transform="translate(-107.305 -119.778)"/><path class="e" d="M185.6,126.6c-.964,3.528-3.678,6.657-5.812,6.073s-2.88-4.657-1.915-8.185,3.273-5.174,5.407-4.591S186.566,123.069,185.6,126.6Z" transform="translate(-141.797 -119.778)"/></g><path class="g" d="M114.713,85.745a5.812,5.812,0,0,0-8.472,1.186c-3.9,4.914-1.356,17.962,5.083,23.214Z" transform="translate(-103.156 -66.724)"/><path class="g" d="M182.635,115.418l.789,9.982c1.59-2.279,2.761-6.027,3.4-9.941C185.425,115.435,184.03,115.409,182.635,115.418Z" transform="translate(-141.625 -81.978)"/><path class="h" d="M124.466,78.8s-3.558-12.369,6.947-17.114,10.845,7.794,16.945,6.947S158.524,64.9,161.913,71s7.117,1.186,7.117,1.186" transform="translate(-112.74 -55.029)"/><path class="i" d="M117.035,49.636s6.172,3.717-1.406,7.232-3.941,7.6-2.82,13.777c0,0-1.666-6.054-7.088-3.681s-3.389,11.183-3.389,11.183" transform="translate(-101.959 -49.636)"/><path class="h" d="M122.793,80.4s-2.9-12.541,7.847-16.721,10.415,8.359,16.551,7.837,10.351-3.183,13.411,3.089" transform="translate(-112.028 -56.12)"/><path class="d" d="M115.918,100.753c0,12.916,7.983,26.1,17.831,26.1s17.831-13.184,17.831-26.1S143.6,80.079,133.749,80.079,115.918,87.837,115.918,100.753Z" transform="translate(-108.822 -64.604)"/><g transform="translate(11.081 6.926)"><path class="g" d="M123.9,81.067a11.771,11.771,0,0,1,4.151-2.881c2.689-.927,5.831-.245,6.016,4.406.329,8.312,3.05,7.625,6.439,6.1s6.608-2.711,7.117,3.05,1.695,7.456,5.422,6.947,8.472-1.017,7.964,4.405c0,0,4.1-8.04-6.947-7.794-7.625.169,2.2-11.183-11.353-10.167,0,0,8.018-.937,8.218,5.846.17,5.761,10.252,5,11.607,2.965,0,0-7.287,1.525-8.642-3.728s-.508-6.947-7.795-8.981l5.253,4.575,2.542,6.778s5.761,4.744,8.642-2.711c0,0-2.2,3.643-4.829.593-1.684-1.956,3.219-7.286-3.643-12.285-6.371-4.641-7.964,3.05-10.506-3.728C139.814,64.495,122.031,67.851,123.9,81.067Z" transform="translate(-123.759 -65.922)"/><path class="g" d="M123.956,76.712s-1.356-8.133,7.625-12.539,10.167,8.642,16.436,7.456,11.024,1.355,11.522,6.778c.678,7.371,4.744,3.389,4.744,3.389s-2.711,5.422-5.253,2.542C156.263,81.2,157.337,74,147,76.2,134.366,78.9,131.242,61.97,123.956,76.712Z" transform="translate(-123.82 -63.26)"/><path class="j" d="M126.4,85.95s10.411-7.337,9.555,3.305c-.667,8.292,2.3,7.883,5.823,6.691s6.838-2.064,6.791,3.719.97,7.584,4.73,7.436,8.53-.2,7.5,5.15" transform="translate(-125.056 -73.204)"/></g><g transform="translate(10.616 33.487)"><g transform="translate(0 0)"><path class="k" d="M152.065,130.981a9.1,9.1,0,0,0,2.4,5l-3.406,2.253" transform="translate(-136.715 -123.118)"/><path class="k" d="M140.889,151.218s6.06,6.232,11.658.2" transform="translate(-131.716 -133.067)"/><path class="l" d="M156.027,118.838s4.575-7.286,11.171-.29" transform="translate(-139.159 -115.512)"/><path class="l" d="M122.844,119.022s4.006-7.236,12.017-.387" transform="translate(-122.844 -115.599)"/><path class="m" d="M135.764,128.166c0,1.4-.388,2.541-.868,2.541s-.868-1.138-.868-2.541.388-2.541.868-2.541S135.764,126.763,135.764,128.166Z" transform="translate(-128.343 -120.484)"/><path class="m" d="M165.562,127.489c0,1.4-.388,2.541-.868,2.541s-.868-1.138-.868-2.541.389-2.541.868-2.541S165.562,126.086,165.562,127.489Z" transform="translate(-142.993 -120.151)"/></g></g></g></g></g></g></g></svg>