<svg xmlns="http://www.w3.org/2000/svg" xmlns:xlink="http://www.w3.org/1999/xlink" width="100.588" height="102.918" viewBox="0 0 100.588 102.918"><defs><style>.a,.e,.h,.i,.j,.k{fill:none;}.b{fill:#fff;}.c{clip-path:url(#a);}.d{fill:#352c38;}.e,.h{stroke:#352c38;}.e,.h,.i,.j,.k{stroke-miterlimit:10;}.f{fill:#ffac9d;}.g{fill:#76413b;}.h{stroke-width:1.348px;}.i{stroke:#63322e;stroke-width:2.033px;}.j,.k{stroke:#161114;}.j{stroke-width:3.53px;}.k{stroke-width:2px;}</style><clipPath id="a"><path class="a" d="M551.13,140.389q-21.135-.473-35.641-15a45.735,45.735,0,0,1-12.584-23.22,53.267,53.267,0,0,1,1.131-26.934,54.211,54.211,0,0,1,13.707-23.062q14.19-14.19,33.384-14.673t35,15.319q15.486,15.486,16.13,36.447T587.74,125.393Q572.259,140.874,551.13,140.389Z" transform="translate(-501.692 -37.487)"/></clipPath></defs><g transform="translate(-501.692 -37.486)"><g transform="translate(501.692 37.487)"><path class="b" d="M551.13,140.389q-21.135-.473-35.641-15a45.735,45.735,0,0,1-12.584-23.22,53.267,53.267,0,0,1,1.131-26.934,54.211,54.211,0,0,1,13.707-23.062q14.19-14.19,33.384-14.673t35,15.319q15.486,15.486,16.13,36.447T587.74,125.393Q572.259,140.874,551.13,140.389Z" transform="translate(-501.692 -37.487)"/></g><g transform="translate(501.692 37.487)"><g class="c"><g transform="translate(13.31 16.406)"><g transform="translate(0 18.178)"><g transform="translate(9.128)"><g transform="translate(30.332)"><path class="d" d="M625.254,105.622s-2.033,20.842.847,28.128,9.489,12.539.339,26.264-23.045-3.22-20.672-30.331S625.254,105.622,625.254,105.622Z" transform="translate(-605.499 -105.52)"/><path class="e" d="M640.224,106.274s-.416,20.937,3.02,27.979,10.43,11.768,2.368,26.16" transform="translate(-622.564 -105.89)"/></g><path class="d" d="M553.984,105.622s2.033,20.842-.847,28.128-9.489,12.539-.339,26.264,23.045-3.22,20.672-30.331S553.984,105.622,553.984,105.622Z" transform="translate(-546.959 -105.52)"/><path class="e" d="M554.952,106.274s.416,20.937-3.019,27.979-10.43,11.768-2.368,26.16" transform="translate(-545.831 -105.89)"/></g><g transform="translate(0 20.5)"><g transform="translate(3.403)"><path class="f" d="M579.029,164.97c-3.47-2.843-.248-19.124-.248-19.124H559.118s3.222,16.281-.248,19.124-26.258,2.5-24.165,31.133h66.869C604.159,167.395,582.5,167.812,579.029,164.97Z" transform="translate(-534.569 -145.846)"/><path class="g" d="M601.77,163.344c-1.717-5.012.754-17.5.754-17.5H582.861a77.832,77.832,0,0,1,1.358,12.271C589.17,161.856,595.39,163.337,601.77,163.344Z" transform="translate(-558.312 -145.846)"/></g><path class="d" d="M603.351,209.751c-3.9-9.43-9.216-13.862-13.6-15.934-.775,7.631-11.039,10.288-24.011,10.288-12.862,0-19.825-3.05-24.664-10.093-4.3,2.15-9.414,6.595-13.2,15.739a32.377,32.377,0,0,0,14.142,6.16c-.3,1.721-.7,3.526-1.213,5.415l24.593.186v0h.308v0l23.861-.184c-.5-1.836-.887-3.592-1.187-5.269A32.7,32.7,0,0,0,603.351,209.751Z" transform="translate(-527.875 -169.431)"/></g></g><g transform="translate(15.601)"><g transform="translate(0 5.246)"><path class="g" d="M558.91,126.6c.964,3.528,3.678,6.657,5.812,6.073s2.88-4.657,1.915-8.185-3.273-5.174-5.407-4.591S557.945,123.069,558.91,126.6Z" transform="translate(-558.565 -99.598)"/><path class="g" d="M636.862,126.6c-.964,3.528-3.678,6.657-5.812,6.073s-2.88-4.657-1.916-8.185,3.273-5.174,5.407-4.591S637.826,123.069,636.862,126.6Z" transform="translate(-593.057 -99.598)"/><path class="f" d="M567.178,100.753c0,12.916,7.984,26.1,17.831,26.1s17.832-13.184,17.832-26.1-7.984-20.674-17.832-20.674S567.178,87.837,567.178,100.753Z" transform="translate(-562.8 -80.079)"/></g><g transform="translate(0.371)"><path class="d" d="M588.027,79.229s-.339,16.1,22.875,16.945l.678,9.658s5.633-9.2,4.914-19.148C615.477,72.621,590.568,60.76,588.027,79.229Z" transform="translate(-573.421 -69.759)"/><path class="d" d="M574.409,83.27s-10.337,5.083-9.658,25.078c0,0-2.881-5.592-1.957-9.814-1.355-1.017-2.788.325-2.788.325s-6.1-26.942,17.453-22.875C599.108,79.722,574.409,83.27,574.409,83.27Z" transform="translate(-559.296 -72.614)"/><path class="h" d="M589.027,90.722s.169,15.25,21.18,17.284" transform="translate(-573.913 -80.066)"/></g><g transform="translate(2.522 21.992)"><g transform="translate(5.377)"><path class="i" d="M603.56,124.555c.932,2.118,2.288,7.117,1.948,10.167-1.136.751-3.982.678-3.982.678" transform="translate(-587.587 -118.692)"/><path class="b" d="M592.149,150.974s5.863,5.783,11.46-.252" transform="translate(-582.977 -131.557)"/><path class="j" d="M606.623,116.4s5.712-7.129,12.017-.388" transform="translate(-590.093 -113.067)"/><path class="j" d="M574.1,116.355s4.005-7.236,12.017-.388" transform="translate(-574.105 -113.021)"/><path class="k" d="M612.193,127.444s.339-3.9,2.966-3.728,2.626,3.9,2.626,3.9" transform="translate(-592.831 -118.277)"/><path class="k" d="M581.693,126.777s.339-3.9,2.966-3.728,2.626,3.9,2.626,3.9" transform="translate(-577.836 -117.949)"/></g><g transform="translate(0 14.674)"><circle class="b" cx="1.779" cy="1.779" r="1.779"/><circle class="b" cx="1.779" cy="1.779" r="1.779" transform="translate(35.754)"/></g></g></g></g></g></g></g></svg>